<svg width="238" height="46" viewBox="0 0 238 46" fill="none" xmlns="http://www.w3.org/2000/svg">
<g clip-path="url(#clip0_2772_2147)">
<path d="M62.4767 22.7531L58.3125 20.1479V18.8742L67.7979 15.4004H68.8389V20.3215C71.2103 18.0057 74.3335 15.4004 78.2085 15.4004C82.0837 15.4004 84.4549 17.6004 85.3803 20.4953C87.7517 18.1794 91.2219 15.4004 95.2705 15.4004C100.534 15.4004 103.021 19.3952 103.021 23.7953V38.8481C103.021 40.8167 104.582 41.6271 107.185 41.8009V44.3483H92.4943V41.8009C95.0971 41.6271 96.5429 40.8167 96.5429 38.8481V26.2849C96.5429 22.0005 94.7501 20.0899 91.5111 20.0899C89.3133 20.0899 87.2311 21.1899 85.8431 22.4057C85.9009 22.8689 85.9009 23.3321 85.9009 23.7953V38.8481C85.9009 40.8167 87.3469 41.6271 89.9495 41.8009V44.3483H75.4323V41.8009C78.0351 41.6271 79.5387 40.8167 79.5387 38.8481V26.2849C79.5387 22.0005 77.7459 20.0899 74.4491 20.0899C72.3091 20.0899 70.2269 21.1321 68.8389 22.4057V38.8481C68.8389 40.8167 70.2849 41.6271 72.8875 41.8009V44.3483H58.3125V41.8009C60.9151 41.6271 62.4767 40.8167 62.4767 38.8481V22.7531Z" fill="black"/>
<path d="M116.714 38.8481C116.714 40.8167 118.275 41.6271 120.878 41.8009V44.3483H106.188V41.8009C108.79 41.6271 110.352 40.8167 110.352 38.8481V22.7531L106.188 20.1479V18.8742L115.673 15.4004H116.714V38.8481Z" fill="black"/>
<path d="M124.164 22.7531L120 20.1479V18.8742L129.485 15.4004H130.526V20.3215C132.898 18.0057 136.021 15.4004 139.896 15.4004C145.159 15.4004 147.588 19.3952 147.588 23.7953V38.8481C147.588 40.8167 149.15 41.6271 151.753 41.8009V44.3483H137.12V41.8009C139.723 41.6271 141.226 40.8167 141.226 38.8481V26.2849C141.226 22.0005 139.433 20.0899 136.137 20.0899C133.997 20.0899 131.915 21.1321 130.526 22.4057V38.8481C130.526 40.8167 131.972 41.6271 134.575 41.8009V44.3483H120V41.8009C122.603 41.6271 124.164 40.8167 124.164 38.8481V22.7531Z" fill="black"/>
<path d="M181.415 43.4218L171.93 44.9272H170.831V40.006C168.575 42.785 165.452 44.9272 162.097 44.9272C155.851 44.9272 150.703 39.2534 150.703 31.6112C150.703 21.5952 157.702 15.4003 165.163 15.4003C167.476 15.4003 169.211 16.0371 170.831 16.9056V7.35276L166.609 4.68956V3.41586L176.152 0H177.193V37.806C177.193 39.6586 177.771 40.4112 179.68 40.7586L181.415 41.0482V43.4218ZM170.831 38.2112V24.7794C170.831 20.6688 168.228 18.4688 164.931 18.4688C160.42 18.4688 157.123 22.6952 157.123 29.0058C157.123 35.8954 160.709 40.1218 165.741 40.1218C167.592 40.1218 169.5 39.427 170.831 38.2112Z" fill="black"/>
<path d="M180.672 30.6849C180.672 22.2899 186.224 15.4004 194.379 15.4004C202.072 15.4004 208.03 21.2479 208.03 29.6427C208.03 37.9797 202.476 44.9273 194.379 44.9273C186.687 44.9273 180.672 39.0797 180.672 30.6849ZM187.554 28.5427C187.554 35.3745 190.504 42.2061 194.958 42.2061C199.353 42.2061 201.146 38.1535 201.146 31.7849C201.146 24.9531 198.254 18.1794 193.627 18.1794C189.405 18.1794 187.554 22.2321 187.554 28.5427Z" fill="black"/>
<path d="M208.711 30.6849C208.711 22.2899 214.265 15.4004 222.419 15.4004C230.111 15.4004 236.069 21.2479 236.069 29.6427C236.069 37.9797 230.517 44.9273 222.419 44.9273C214.727 44.9273 208.711 39.0797 208.711 30.6849ZM215.595 28.5427C215.595 35.3745 218.543 42.2061 222.997 42.2061C227.393 42.2061 229.187 38.1535 229.187 31.7849C229.187 24.9531 226.295 18.1794 221.667 18.1794C217.445 18.1794 215.595 22.2321 215.595 28.5427Z" fill="black"/>
<path d="M29.7266 40.6954C28.785 40.1286 28.3906 39.3064 28.5706 38.3342C28.7442 37.396 29.4906 36.7212 30.5188 36.53C32.8326 36.0996 35.0728 35.416 37.2262 34.468C39.033 33.6724 40.6874 32.6312 42.0932 31.2264C43.784 29.5368 44.9236 27.5406 45.1956 25.147C45.6686 20.981 43.3036 17.2201 39.0004 16.3967C36.5466 15.9272 34.298 16.4995 32.2418 17.9023C30.964 18.774 29.9798 19.9076 29.1762 21.2164C28.7164 21.9652 28.069 22.4032 27.1564 22.348C26.253 22.2934 25.5688 21.9036 25.2196 21.0326C24.9676 20.4044 25.1058 19.7665 25.1854 19.1284C25.4974 16.6254 25.2526 14.2408 23.658 12.1569C21.3578 9.15129 17.0108 8.83285 14.2538 11.4249C12.5187 13.0562 11.5865 15.1118 10.9474 17.342C10.8622 17.6393 10.7189 17.9274 10.7298 18.281C11.4267 18.4888 12.1289 18.6754 12.816 18.9069C16.8628 20.2706 20.1654 22.68 22.7964 26.0362C24.1158 27.7194 25.164 29.5538 25.824 31.5868C26.5968 33.9672 26.8618 36.3792 26.1266 38.8396C25.1872 41.9838 22.173 44.4738 18.9141 44.8432C14.7556 45.3146 11.424 43.8018 8.8072 40.6482C7.32658 38.864 6.43022 36.7526 5.81724 34.5186C5.07124 31.7998 4.89414 29.026 4.99092 26.227C5.02942 25.1132 5.12398 24.0004 5.27988 22.895C5.35402 22.3694 5.27546 22.2646 4.7483 22.3214C4.03794 22.398 3.33094 22.5054 2.62222 22.5974C1.34274 22.7636 0.22332 21.972 0.0280605 20.765C-0.166755 19.5605 0.673302 18.3719 1.9122 18.1445C3.17696 17.9124 4.4464 17.6928 5.73934 17.715C6.05576 17.7204 6.19202 17.6047 6.2667 17.2977C6.71744 15.4449 7.27524 13.6279 8.14162 11.9193C9.378 9.48099 11.0992 7.50777 13.555 6.23169C15.5342 5.20329 17.6344 4.89313 19.8348 5.13789C22.3848 5.42155 24.5232 6.54617 26.3112 8.35139C27.8032 9.85771 28.7882 11.6632 29.3192 13.7172C29.4744 14.3177 29.5316 14.341 30.0504 13.9972C31.697 12.906 33.4972 12.1674 35.445 11.9004C39.048 11.4066 42.3784 12.1402 45.2262 14.4907C47.9564 16.7439 49.4438 19.6834 49.658 23.2248C49.961 28.2302 47.921 32.1958 44.1522 35.3536C41.5974 37.4942 38.6198 38.8276 35.4708 39.8168C34.2708 40.1936 33.0472 40.484 31.8222 40.7658C31.1332 40.9242 30.438 40.9886 29.7266 40.6954ZM15.6841 25.2026C14.0183 24.0814 12.2057 23.2982 10.2608 22.8046C9.88788 22.71 9.78046 22.8212 9.72876 23.1666C9.50824 24.6404 9.42368 26.1262 9.41064 27.6106C9.39898 28.939 9.51348 30.2678 9.73662 31.5822C10.0477 33.4146 10.5665 35.1816 11.5309 36.7818C12.5629 38.494 13.9084 39.8892 15.8973 40.4348C19.1263 41.3204 22.3124 39.4994 22.2092 35.523C22.1762 34.2544 21.8662 33.0314 21.3442 31.8714C20.1082 29.1246 18.1842 26.9574 15.6841 25.2026Z" fill="url(#paint0_linear_2772_2147)"/>
</g>
<defs>
<linearGradient id="paint0_linear_2772_2147" x1="24.8438" y1="5.05859" x2="24.8438" y2="44.9278" gradientUnits="userSpaceOnUse">
<stop stop-color="#0059FF" stop-opacity="0.32"/>
<stop offset="1" stop-color="#0059FF"/>
</linearGradient>
<clipPath id="clip0_2772_2147">
<rect width="238" height="46" fill="white"/>
</clipPath>
</defs>
</svg>
