<svg width="124" height="24" viewBox="0 0 124 24" fill="none" xmlns="http://www.w3.org/2000/svg">
<g clip-path="url(#clip0_2772_2178)">
<path d="M32.5523 11.8553L30.3828 10.4979L30.3828 9.83427L35.3248 8.0245L35.8672 8.02451L35.8671 10.5885C37.1026 9.38192 38.7299 8.02456 40.7488 8.02459C42.7678 8.02463 44.0032 9.17089 44.4853 10.6792C45.7209 9.47256 47.5289 8.02471 49.6382 8.02475C52.3804 8.0248 53.6761 10.1062 53.6761 12.3986L53.6759 20.2413C53.6759 21.2669 54.4895 21.6892 55.8456 21.7798L55.8456 23.107L48.1916 23.1068L48.1916 21.7796C49.5477 21.6891 50.3009 21.2669 50.301 20.2412L50.3011 13.6957C50.3011 11.4635 49.3671 10.468 47.6795 10.468C46.5344 10.468 45.4496 11.0411 44.7264 11.6745C44.7565 11.9158 44.7565 12.1572 44.7565 12.3985L44.7564 20.2411C44.7564 21.2668 45.5097 21.689 46.8657 21.7796L46.8657 23.1068L39.3021 23.1067L39.3021 21.7795C40.6582 21.6889 41.4416 21.2667 41.4416 20.2411L41.4417 13.6955C41.4418 11.4633 40.5077 10.4679 38.7901 10.4678C37.6751 10.4678 36.5903 11.0108 35.8671 11.6743L35.8669 20.241C35.8669 21.2666 36.6203 21.6889 37.9763 21.7794L37.9762 23.1067L30.3825 23.1065L30.3826 21.7793C31.7386 21.6888 32.5522 21.2666 32.5522 20.2409L32.5523 11.8553Z" fill="black"/>
<path d="M60.8123 20.241C60.8122 21.2666 61.6258 21.6889 62.9819 21.7794L62.9819 23.1067L55.3279 23.1065L55.3279 21.7793C56.684 21.6888 57.4976 21.2666 57.4976 20.2409L57.4977 11.8553L55.3281 10.4979L55.3281 9.83427L60.2701 8.0245L60.8125 8.02451L60.8123 20.241Z" fill="black"/>
<path d="M64.6931 11.8558L62.5234 10.4984L62.5234 9.83476L67.4654 8.02499L68.0078 8.025L68.0077 10.5889C69.2433 9.38241 70.8705 8.02505 72.8894 8.02508C75.6316 8.02513 76.8972 10.1065 76.8972 12.399L76.897 20.2416C76.897 21.2673 77.7106 21.6895 79.0667 21.7801L79.0667 23.1073L71.4427 23.1072L71.4428 21.78C72.7988 21.6894 73.5823 21.2672 73.5824 20.2416L73.5825 13.696C73.5825 11.4638 72.6484 10.4684 70.9307 10.4683C69.8157 10.4683 68.731 11.0113 68.0077 11.6748L68.0076 20.2415C68.0076 21.2671 68.7609 21.6894 70.1169 21.7799L70.1169 23.1071L62.5232 23.107L62.5232 21.7798C63.8793 21.6893 64.6929 21.2671 64.6929 20.2414L64.6931 11.8558Z" fill="black"/>
<path d="M94.5163 22.6249L89.5743 23.4091L89.0018 23.4091L89.0018 20.8451C87.8266 22.293 86.1994 23.409 84.4516 23.409C81.1972 23.409 78.5153 20.4528 78.5153 16.4712C78.5154 11.2527 82.1617 8.0252 86.049 8.02527C87.2544 8.02529 88.1583 8.35712 89.002 8.8096L89.0021 3.8325L86.8024 2.44491L86.8024 1.7813L91.7746 0.00169626L92.3169 0.00170572L92.3166 19.699C92.3166 20.6642 92.6179 21.0563 93.6123 21.2373L94.5164 21.3882L94.5163 22.6249ZM89.0018 19.91L89.0019 12.9119C89.002 10.7703 87.646 9.624 85.9284 9.62397C83.578 9.62393 81.8603 11.8259 81.8602 15.1138C81.8602 18.7033 83.7285 20.9054 86.3501 20.9054C87.3144 20.9054 88.3088 20.5434 89.0018 19.91Z" fill="black"/>
<path d="M94.1327 15.9888C94.1327 11.6149 97.0257 8.02544 101.275 8.02552C105.282 8.02559 108.387 11.0722 108.386 15.446C108.386 19.7897 105.493 23.4094 101.274 23.4093C97.2665 23.4092 94.1326 20.3625 94.1327 15.9888ZM97.7186 14.8727C97.7185 18.4321 99.2553 21.9915 101.576 21.9915C103.866 21.9916 104.8 19.8801 104.8 16.5621C104.8 13.0026 103.293 9.47343 100.883 9.47339C98.683 9.47335 97.7186 11.5848 97.7186 14.8727Z" fill="black"/>
<path d="M108.742 15.9888C108.742 11.6149 111.636 8.02544 115.884 8.02552C119.892 8.02559 122.996 11.0722 122.996 15.446C122.996 19.7897 120.103 23.4094 115.884 23.4093C111.876 23.4092 108.742 20.3625 108.742 15.9888ZM112.329 14.8727C112.329 18.4321 113.864 21.9915 116.185 21.9915C118.475 21.9916 119.41 19.8801 119.41 16.5621C119.41 13.0026 117.904 9.47343 115.492 9.47339C113.293 9.47335 112.329 11.5848 112.329 14.8727Z" fill="black"/>
<path d="M15.4875 21.2026C14.9969 20.9073 14.7914 20.4789 14.8852 19.9724C14.9757 19.4836 15.3646 19.132 15.9003 19.0324C17.1058 18.8082 18.2729 18.452 19.3949 17.9581C20.3363 17.5436 21.1982 17.0012 21.9307 16.2693C22.8116 15.389 23.4054 14.349 23.5471 13.1019C23.7936 10.9314 22.5614 8.97188 20.3194 8.54285C19.041 8.29822 17.8694 8.59638 16.7981 9.32721C16.1324 9.78138 15.6196 10.372 15.2009 11.0539C14.9613 11.444 14.624 11.6722 14.1486 11.6434C13.6779 11.615 13.3214 11.4119 13.1395 10.9581C13.0082 10.6308 13.0802 10.2984 13.1217 9.96595C13.2843 8.66189 13.1567 7.4195 12.326 6.33377C11.1276 4.76778 8.86272 4.60183 7.42631 5.95228C6.5223 6.80218 6.03655 7.87317 5.7036 9.0351C5.65919 9.19003 5.58451 9.34008 5.59021 9.52435C5.95326 9.63263 6.31911 9.72983 6.6771 9.85047C8.7855 10.561 10.5062 11.8163 11.8769 13.565C12.5643 14.4419 13.1104 15.3977 13.4543 16.4569C13.8569 17.6971 13.9949 18.9538 13.6119 20.2357C13.1224 21.8738 11.552 23.1711 9.85406 23.3635C7.68742 23.6091 5.95163 22.8209 4.5883 21.1778C3.8169 20.2482 3.34991 19.1481 3.03056 17.9842C2.64192 16.5677 2.54967 15.1225 2.60012 13.6642C2.62019 13.0839 2.66946 12.5041 2.7507 11.9282C2.78933 11.6544 2.7484 11.5998 2.47375 11.6293C2.10364 11.6693 1.73529 11.7252 1.36604 11.7731C0.699416 11.8597 0.116198 11.4473 0.0144769 10.8184C-0.0870127 10.1909 0.350675 9.57159 0.996152 9.45314C1.65511 9.33221 2.3165 9.21783 2.99013 9.2294C3.15499 9.23223 3.22598 9.17194 3.26489 9.012C3.49975 8.04667 3.79038 7.1 4.24179 6.20979C4.88598 4.93944 5.78278 3.9114 7.06228 3.24657C8.09345 2.71078 9.18768 2.54921 10.3341 2.67675C11.6627 2.82456 12.7768 3.41052 13.7083 4.35107C14.4857 5.13589 14.9988 6.07658 15.2755 7.14673C15.3563 7.45959 15.3861 7.47176 15.6564 7.29264C16.5143 6.72412 17.4523 6.33929 18.4671 6.20022C20.3443 5.94299 22.0794 6.32522 23.5631 7.54986C24.9856 8.72383 25.7605 10.2553 25.8721 12.1004C26.0299 14.7083 24.967 16.7744 23.0034 18.4196C21.6723 19.5348 20.1209 20.2295 18.4803 20.7449C17.8551 20.9412 17.2175 21.0925 16.5793 21.2393C16.2203 21.3218 15.8581 21.3554 15.4875 21.2026ZM8.17138 13.1306C7.30348 12.5464 6.35913 12.1383 5.34579 11.8812C5.15151 11.8319 5.09554 11.8898 5.0686 12.0698C4.95369 12.8376 4.90962 13.6117 4.90282 14.3851C4.89673 15.0772 4.95637 15.7695 5.07262 16.4543C5.23466 17.409 5.50495 18.3297 6.00743 19.1634C6.54507 20.0555 7.24607 20.7824 8.28228 21.0667C9.96465 21.5281 11.6246 20.5794 11.5709 18.5077C11.5537 17.8467 11.3922 17.2095 11.1203 16.6051C10.4763 15.174 9.47394 14.0449 8.17138 13.1306Z" fill="url(#paint0_linear_2772_2178)"/>
</g>
<defs>
<linearGradient id="paint0_linear_2772_2178" x1="12.9438" y1="2.63548" x2="12.9435" y2="23.4077" gradientUnits="userSpaceOnUse">
<stop stop-color="#0059FF" stop-opacity="0.32"/>
<stop offset="1" stop-color="#0059FF"/>
</linearGradient>
<clipPath id="clip0_2772_2178">
<rect width="124" height="23.9664" fill="white"/>
</clipPath>
</defs>
</svg>
