<?xml version="1.0" encoding="utf-8"?>
<!-- Generator: Adobe Illustrator 25.2.1, SVG Export Plug-In . SVG Version: 6.00 Build 0)  -->
<svg version="1.1" id="Layer_1" xmlns="http://www.w3.org/2000/svg" xmlns:xlink="http://www.w3.org/1999/xlink" x="0px" y="0px"
	 viewBox="0 0 476.3 196.9" style="enable-background:new 0 0 476.3 196.9;" xml:space="preserve">
<style type="text/css">
	.st0{fill:#336396;stroke:#336396;stroke-width:5;stroke-miterlimit:10;}
	.st1{fill:#336396;}
	.st2{fill:#FFFFFF;}
	.st3{fill:none;stroke:#316296;stroke-width:6;}
</style>
<g>
	<path class="st0" d="M81.8,101.7c0,0,44.1-5.8,44.1-49.1S82.1,4.3,82.1,4.3H4.5v27.1l26.9,27.3V31.4h46.7c0,0,21.1,1.3,21.1,21.1
		s-20.7,22-20.7,22h-74v86.3l27.4,29.6l-0.4-88.6L81.8,101.7z"/>
	<polygon class="st1" points="161.8,196.9 122.3,196.8 41.2,110.8 80.6,110.8 	"/>
	<g>
		<path class="st1" d="M71.9,198.1c-4.9,0-9.6-2.2-13.9-6.5c-6.1-6.1-5.7-12.4-4.3-16.6c1.4-4.3,4.2-7.3,4.3-7.4l0.1-0.1l27.5-25.9
			l0,0l2.2-2.1l33.1-30.6l0.1-0.1c0.4-0.3,4.2-3.3,9.8-3.3c4.9,0,9.6,2.2,13.9,6.5c6.1,6.1,5.7,12.4,4.3,16.6
			c-1.4,4.3-4.2,7.3-4.3,7.4l-0.1,0.1l-27.5,25.9l0,0l-2.2,2.1l-33.1,30.6l-0.1,0.1C81.3,195.2,77.6,198.1,71.9,198.1L71.9,198.1z"
			/>
		<path class="st2" d="M130.9,108.6c3.3,0,7.4,1.3,11.8,5.6c9.6,9.6,0,19.8,0,19.8l-29.7,28l0,0l-33.1,30.5c0,0-3.2,2.6-7.9,2.6
			c-3.3,0-7.4-1.3-11.8-5.6c-9.6-9.6,0-19.8,0-19.8l29.7-28l0,0l33.1-30.5C122.9,111.2,126.1,108.6,130.9,108.6 M130.9,102.6
			c-6.7,0-11.2,3.5-11.7,4l-0.1,0.1l-0.1,0.1l-33.1,30.5l-4.5,4.2l0.1,0.1l-25.3,23.8l-0.1,0.1l-0.1,0.1c-5.5,5.8-10,18.1,0.1,28.2
			c6.1,6.1,12.1,7.4,16,7.4c6.7,0,11.2-3.5,11.7-4l0.1-0.1l0.1-0.1l33.1-30.5l4.5-4.2l-0.1-0.1l25.3-23.8l0.1-0.1l0.1-0.1
			c5.5-5.8,10-18.1-0.1-28.2C140.8,103.8,134.8,102.6,130.9,102.6L130.9,102.6z"/>
	</g>
	<path class="st1" d="M111.3,163.5l31.3-29.5c0,0,9.7-10.2,0-19.8c-10.5-10.5-19.7-3-19.7-3l-33.1,30.5L111.3,163.5z"/>
	<g>
		<path class="st2" d="M71.9,193.1c-3.5,0-7-1.7-10.3-5c-7.9-7.9-0.6-16.3,0-17L91.4,143L110,162L78.5,191
			C78.2,191.3,75.6,193.1,71.9,193.1C71.9,193.1,71.9,193.1,71.9,193.1z"/>
		<path class="st1" d="M91.4,145.8l15.8,16l-29.9,27.6c-0.4,0.3-2.4,1.7-5.3,1.7c-3,0-6-1.5-8.9-4.4c-2.8-2.8-3.7-5.9-2.7-9.3
			c0.8-2.6,2.5-4.6,2.7-4.9L91.4,145.8 M91.5,140.2l-31.3,29.5c0,0-9.7,10.2,0,19.8c4.3,4.3,8.4,5.6,11.8,5.6c4.8,0,7.9-2.6,7.9-2.6
			l33.1-30.5L91.5,140.2L91.5,140.2z"/>
	</g>
</g>
<path class="st3" d="M174,74.4h31.6l57.2,83.3V74.4h28.1v119.5h-30.1l-58.7-84.8v84.8H174V74.4z"/>
<path class="st3" d="M336.5,103.2h24l35.9,90.7h-23l-6.7-18.6h-37.4l-6.9,18.6h-22.2L336.5,103.2z M335.1,159.6h26L348.3,124
	L335.1,159.6z"/>
<path class="st3" d="M449.4,103.2h22l-34.6,90.7h-20l-34.3-90.7h22.6l22,68.8L449.4,103.2z"/>
</svg>
